<svg xmlns="http://www.w3.org/2000/svg" viewBox="0 0 64 64" fill="none">
  <rect width="64" height="64" rx="14" fill="#FBF7EE"></rect>
  <g transform="translate(20, 16)" fill="#D5A646">
    <path d="M 12 11 C 9.5 11, 7.6 8.5, 7.6 5.6 C 7.6 2.4, 9.5 0.4, 12 0.4 C 14.5 0.4, 16.4 2.4, 16.4 5.6 C 16.4 8.5, 14.5 11, 12 11 Z"></path>
    <path d="M 12 11 C 9.5 11, 7.6 8.5, 7.6 5.6 C 7.6 2.4, 9.5 0.4, 12 0.4 C 14.5 0.4, 16.4 2.4, 16.4 5.6 C 16.4 8.5, 14.5 11, 12 11 Z" transform="rotate(60 12 12)"></path>
    <path d="M 12 11 C 9.5 11, 7.6 8.5, 7.6 5.6 C 7.6 2.4, 9.5 0.4, 12 0.4 C 14.5 0.4, 16.4 2.4, 16.4 5.6 C 16.4 8.5, 14.5 11, 12 11 Z" transform="rotate(120 12 12)"></path>
    <path d="M 12 11 C 9.5 11, 7.6 8.5, 7.6 5.6 C 7.6 2.4, 9.5 0.4, 12 0.4 C 14.5 0.4, 16.4 2.4, 16.4 5.6 C 16.4 8.5, 14.5 11, 12 11 Z" transform="rotate(180 12 12)"></path>
    <path d="M 12 11 C 9.5 11, 7.6 8.5, 7.6 5.6 C 7.6 2.4, 9.5 0.4, 12 0.4 C 14.5 0.4, 16.4 2.4, 16.4 5.6 C 16.4 8.5, 14.5 11, 12 11 Z" transform="rotate(240 12 12)"></path>
    <path d="M 12 11 C 9.5 11, 7.6 8.5, 7.6 5.6 C 7.6 2.4, 9.5 0.4, 12 0.4 C 14.5 0.4, 16.4 2.4, 16.4 5.6 C 16.4 8.5, 14.5 11, 12 11 Z" transform="rotate(300 12 12)"></path>
    <circle cx="12" cy="12" r="3.2" fill="#FBF7EE"></circle>
  </g>
  <text x="11" y="56" font-family="Playfair Display, Georgia, serif" font-size="22" font-style="italic" font-weight="500" fill="#2E2418" letter-spacing="-0.02em">days</text>
</svg>