<svg xmlns="http://www.w3.org/2000/svg" viewBox="0 0 24 24" fill="none">
  <g fill="#D5A646">
    <path d="M 12 10.5 C 10 10.5, 8.3 8.4, 8.3 5.6 C 8.3 2.6, 10 0.4, 12 0.4 C 14 0.4, 15.7 2.6, 15.7 5.6 C 15.7 8.4, 14 10.5, 12 10.5 Z"></path>
    <path d="M 12 10.5 C 10 10.5, 8.3 8.4, 8.3 5.6 C 8.3 2.6, 10 0.4, 12 0.4 C 14 0.4, 15.7 2.6, 15.7 5.6 C 15.7 8.4, 14 10.5, 12 10.5 Z" transform="rotate(60 12 12)"></path>
    <path d="M 12 10.5 C 10 10.5, 8.3 8.4, 8.3 5.6 C 8.3 2.6, 10 0.4, 12 0.4 C 14 0.4, 15.7 2.6, 15.7 5.6 C 15.7 8.4, 14 10.5, 12 10.5 Z" transform="rotate(120 12 12)"></path>
    <path d="M 12 10.5 C 10 10.5, 8.3 8.4, 8.3 5.6 C 8.3 2.6, 10 0.4, 12 0.4 C 14 0.4, 15.7 2.6, 15.7 5.6 C 15.7 8.4, 14 10.5, 12 10.5 Z" transform="rotate(180 12 12)"></path>
    <path d="M 12 10.5 C 10 10.5, 8.3 8.4, 8.3 5.6 C 8.3 2.6, 10 0.4, 12 0.4 C 14 0.4, 15.7 2.6, 15.7 5.6 C 15.7 8.4, 14 10.5, 12 10.5 Z" transform="rotate(240 12 12)"></path>
    <path d="M 12 10.5 C 10 10.5, 8.3 8.4, 8.3 5.6 C 8.3 2.6, 10 0.4, 12 0.4 C 14 0.4, 15.7 2.6, 15.7 5.6 C 15.7 8.4, 14 10.5, 12 10.5 Z" transform="rotate(300 12 12)"></path>
  </g>
  <circle cx="12" cy="12" r="4.4" fill="#FBF7EE"></circle>
</svg>