<svg xmlns="http://www.w3.org/2000/svg" viewBox="0 0 150 56" fill="none">
  <text x="0" y="42" font-family="Playfair Display, Georgia, serif" font-size="44" font-style="italic" font-weight="500" fill="#2E2418" letter-spacing="-0.02em">days</text>
  <g transform="translate(99, 23)">
    <g fill="#FFFFFF" stroke="#D5A646" stroke-width="0.55">
      <path d="M 10 8.8 C 8.3 8.8, 6.9 7, 6.9 4.7 C 6.9 2.2, 8.3 0.3, 10 0.3 C 11.7 0.3, 13.1 2.2, 13.1 4.7 C 13.1 7, 11.7 8.8, 10 8.8 Z"></path>
      <path d="M 10 8.8 C 8.3 8.8, 6.9 7, 6.9 4.7 C 6.9 2.2, 8.3 0.3, 10 0.3 C 11.7 0.3, 13.1 2.2, 13.1 4.7 C 13.1 7, 11.7 8.8, 10 8.8 Z" transform="rotate(60 10 10)"></path>
      <path d="M 10 8.8 C 8.3 8.8, 6.9 7, 6.9 4.7 C 6.9 2.2, 8.3 0.3, 10 0.3 C 11.7 0.3, 13.1 2.2, 13.1 4.7 C 13.1 7, 11.7 8.8, 10 8.8 Z" transform="rotate(120 10 10)"></path>
      <path d="M 10 8.8 C 8.3 8.8, 6.9 7, 6.9 4.7 C 6.9 2.2, 8.3 0.3, 10 0.3 C 11.7 0.3, 13.1 2.2, 13.1 4.7 C 13.1 7, 11.7 8.8, 10 8.8 Z" transform="rotate(180 10 10)"></path>
      <path d="M 10 8.8 C 8.3 8.8, 6.9 7, 6.9 4.7 C 6.9 2.2, 8.3 0.3, 10 0.3 C 11.7 0.3, 13.1 2.2, 13.1 4.7 C 13.1 7, 11.7 8.8, 10 8.8 Z" transform="rotate(240 10 10)"></path>
      <path d="M 10 8.8 C 8.3 8.8, 6.9 7, 6.9 4.7 C 6.9 2.2, 8.3 0.3, 10 0.3 C 11.7 0.3, 13.1 2.2, 13.1 4.7 C 13.1 7, 11.7 8.8, 10 8.8 Z" transform="rotate(300 10 10)"></path>
    </g>
    <circle cx="10" cy="10" r="3.6" fill="#D5A646" stroke="#A7842D" stroke-width="0.5"></circle>
  </g>
</svg>