<svg xmlns="http://www.w3.org/2000/svg" width="512" height="512" viewBox="0 0 512 512">

  <defs>
    <linearGradient id="bg" x1="0" y1="0" x2="0" y2="1">
      <stop offset="0%" stop-color="#FCF6EC"></stop>
      <stop offset="100%" stop-color="#C8DFCA"></stop>
    </linearGradient>
  </defs>
  <rect width="512" height="512" fill="url(#bg)"></rect>

<g transform="translate(120.6 135.9) scale(4.368)">
    <path d="M15 41 C9 41 5 36.8 5 31.4 C5 26.4 8.8 22.4 13.8 22.1 C15 17.5 19.4 14 24.6 14 C28.8 14 32.4 16.2 34.2 19.4 C35.8 18.6 37.6 18.2 39.4 18.2 C44.8 18.2 49.2 22.2 49.6 27.2 C53.6 27.6 57 30.8 57 34.6 C57 38.8 53.4 41 49 41 Z" fill="#475A33"></path>
  </g>
</svg>