<svg xmlns="http://www.w3.org/2000/svg" width="220" height="168" viewBox="0 0 220 168" fill="none" role="img" aria-label="따분"><defs><clipPath id="clip-bored"><rect x="34" y="74" width="152" height="60" rx="30"></rect><circle cx="64" cy="84" r="32"></circle><circle cx="100" cy="58" r="42"></circle><circle cx="144" cy="62" r="38"></circle><circle cx="174" cy="88" r="30"></circle></clipPath></defs><ellipse cx="110" cy="150" rx="74" ry="13" fill="rgba(54,70,38,0.10)"></ellipse><g clip-path="url(#clip-bored)"><rect x="34" y="74" width="152" height="60" rx="30" fill="#D8D2BC"></rect><circle cx="64" cy="84" r="32" fill="#D8D2BC"></circle><circle cx="100" cy="58" r="42" fill="#D8D2BC"></circle><circle cx="144" cy="62" r="38" fill="#D8D2BC"></circle><circle cx="174" cy="88" r="30" fill="#D8D2BC"></circle><ellipse cx="110" cy="150" rx="92" ry="34" fill="#A89F80" opacity="0.18"></ellipse><ellipse cx="92" cy="46" rx="30" ry="16" fill="#ffffff" opacity="0.45"></ellipse></g><path d="M82 90 h18" stroke="#5A5440" stroke-width="5" fill="none" stroke-linecap="round"></path><path d="M122 90 h18" stroke="#5A5440" stroke-width="5" fill="none" stroke-linecap="round"></path><path d="M82 84 q9 -5 18 0" stroke="#5A5440" stroke-width="3" fill="none" stroke-linecap="round" opacity="0.5"></path><path d="M122 84 q9 -5 18 0" stroke="#5A5440" stroke-width="3" fill="none" stroke-linecap="round" opacity="0.5"></path><ellipse cx="72" cy="104" rx="11" ry="7" fill="#C9A99A" opacity="0.55"></ellipse><ellipse cx="150" cy="104" rx="11" ry="7" fill="#C9A99A" opacity="0.55"></ellipse><path d="M101 110 h20" stroke="#5A5440" stroke-width="5" fill="none" stroke-linecap="round"></path></svg>