<svg xmlns="http://www.w3.org/2000/svg" width="220" height="168" viewBox="0 0 220 168" fill="none" role="img" aria-label="슬픔"><defs><clipPath id="clip-sad"><rect x="34" y="74" width="152" height="60" rx="30"></rect><circle cx="64" cy="84" r="32"></circle><circle cx="100" cy="58" r="42"></circle><circle cx="144" cy="62" r="38"></circle><circle cx="174" cy="88" r="30"></circle></clipPath></defs><ellipse cx="110" cy="150" rx="74" ry="13" fill="rgba(54,70,38,0.10)"></ellipse><g clip-path="url(#clip-sad)"><rect x="34" y="74" width="152" height="60" rx="30" fill="#AECDF0"></rect><circle cx="64" cy="84" r="32" fill="#AECDF0"></circle><circle cx="100" cy="58" r="42" fill="#AECDF0"></circle><circle cx="144" cy="62" r="38" fill="#AECDF0"></circle><circle cx="174" cy="88" r="30" fill="#AECDF0"></circle><ellipse cx="110" cy="150" rx="92" ry="34" fill="#5B8FD6" opacity="0.18"></ellipse><ellipse cx="92" cy="46" rx="30" ry="16" fill="#ffffff" opacity="0.45"></ellipse></g><path d="M84 92 Q91 86 98 92" stroke="#274C77" stroke-width="5" fill="none" stroke-linecap="round"></path><path d="M124 92 Q131 86 138 92" stroke="#274C77" stroke-width="5" fill="none" stroke-linecap="round"></path><ellipse cx="72" cy="104" rx="11" ry="7" fill="#88B4E6" opacity="0.55"></ellipse><ellipse cx="150" cy="104" rx="11" ry="7" fill="#88B4E6" opacity="0.55"></ellipse><path d="M98 118 Q111 108 124 118" stroke="#274C77" stroke-width="5" fill="none" stroke-linecap="round"></path><path d="M140 96 q-8 12 0 17 q8 -5 0 -17 Z" fill="#5B8FD6"></path><ellipse cx="138.5" cy="108" rx="2.2" ry="3" fill="#ffffff" opacity="0.55"></ellipse></svg>