<svg xmlns="http://www.w3.org/2000/svg" width="220" height="168" viewBox="0 0 220 168" fill="none" role="img" aria-label="행복"><defs><clipPath id="clip-happy"><rect x="34" y="74" width="152" height="60" rx="30"></rect><circle cx="64" cy="84" r="32"></circle><circle cx="100" cy="58" r="42"></circle><circle cx="144" cy="62" r="38"></circle><circle cx="174" cy="88" r="30"></circle></clipPath></defs><ellipse cx="110" cy="150" rx="74" ry="13" fill="rgba(54,70,38,0.10)"></ellipse><g clip-path="url(#clip-happy)"><rect x="34" y="74" width="152" height="60" rx="30" fill="#FFDE8A"></rect><circle cx="64" cy="84" r="32" fill="#FFDE8A"></circle><circle cx="100" cy="58" r="42" fill="#FFDE8A"></circle><circle cx="144" cy="62" r="38" fill="#FFDE8A"></circle><circle cx="174" cy="88" r="30" fill="#FFDE8A"></circle><ellipse cx="110" cy="150" rx="92" ry="34" fill="#F4C24B" opacity="0.18"></ellipse><ellipse cx="92" cy="46" rx="30" ry="16" fill="#ffffff" opacity="0.45"></ellipse></g><path d="M82 90 Q90 80 98 90" stroke="#6B5212" stroke-width="5" fill="none" stroke-linecap="round"></path><path d="M124 90 Q132 80 140 90" stroke="#6B5212" stroke-width="5" fill="none" stroke-linecap="round"></path><ellipse cx="72" cy="104" rx="11" ry="7" fill="#F39B86" opacity="0.55"></ellipse><ellipse cx="150" cy="104" rx="11" ry="7" fill="#F39B86" opacity="0.55"></ellipse><path d="M96 104 Q111 124 126 104 Z" fill="#6B5212"></path><path d="M101 113 Q111 121 121 113 Z" fill="#F39B86"></path></svg>