<svg xmlns="http://www.w3.org/2000/svg" width="220" height="168" viewBox="0 0 220 168" fill="none" role="img" aria-label="화남"><defs><clipPath id="clip-angry"><rect x="34" y="74" width="152" height="60" rx="30"></rect><circle cx="64" cy="84" r="32"></circle><circle cx="100" cy="58" r="42"></circle><circle cx="144" cy="62" r="38"></circle><circle cx="174" cy="88" r="30"></circle></clipPath></defs><ellipse cx="110" cy="150" rx="74" ry="13" fill="rgba(54,70,38,0.10)"></ellipse><g clip-path="url(#clip-angry)"><rect x="34" y="74" width="152" height="60" rx="30" fill="#F4A28E"></rect><circle cx="64" cy="84" r="32" fill="#F4A28E"></circle><circle cx="100" cy="58" r="42" fill="#F4A28E"></circle><circle cx="144" cy="62" r="38" fill="#F4A28E"></circle><circle cx="174" cy="88" r="30" fill="#F4A28E"></circle><ellipse cx="110" cy="150" rx="92" ry="34" fill="#E15B3C" opacity="0.18"></ellipse><ellipse cx="92" cy="46" rx="30" ry="16" fill="#ffffff" opacity="0.45"></ellipse></g><path d="M80 78 L100 86" stroke="#7C2B1A" stroke-width="5" fill="none" stroke-linecap="round"></path><path d="M140 78 L120 86" stroke="#7C2B1A" stroke-width="5" fill="none" stroke-linecap="round"></path><circle cx="93" cy="93" r="4.5" fill="#7C2B1A"></circle><circle cx="127" cy="93" r="4.5" fill="#7C2B1A"></circle><ellipse cx="72" cy="104" rx="11" ry="7" fill="#D9583F" opacity="0.55"></ellipse><ellipse cx="150" cy="104" rx="11" ry="7" fill="#D9583F" opacity="0.55"></ellipse><path d="M100 112 Q111 104 122 112" stroke="#7C2B1A" stroke-width="5" fill="none" stroke-linecap="round"></path></svg>